<?xml version="1.0" encoding="UTF-8"?><svg id="Layer_1" xmlns="http://www.w3.org/2000/svg" viewBox="0 0 46 150"><defs><style>.cls-1{fill:#f0f0f0;}.cls-2{fill:#404040;}.cls-3{fill:gray;}</style></defs><path class="cls-1" d="M22.51,4.6v116.89c-3.71,0-7.08,1.55-9.56,4.07L.71,106.82l-.19-.28.02-.09L22.51,4.6Z"/><path class="cls-2" d="M12.87,126.35L0,106.65l.05-.22L23,0v122h-.49c-3.46,0-6.73,1.39-9.22,3.93l-.42.42ZM1.05,106.43l.06.09,11.92,18.26c2.49-2.34,5.65-3.67,8.99-3.79V9.2L1.05,106.43Z"/><path class="cls-3" d="M45.49,106.54l-.19.28-12.25,18.74c-2.48-2.52-5.85-4.07-9.57-4.07V4.6l21.98,101.85.02.09Z"/><path class="cls-2" d="M33.14,126.35l-.42-.42c-2.49-2.53-5.77-3.93-9.23-3.93h-.49V0l23,106.56-.1.28-.19.28-12.57,19.24ZM23.98,120.99c3.34.12,6.5,1.45,9,3.79l11.99-18.35L23.98,9.2v111.79Z"/><path class="cls-3" d="M37,135.5c0,7.73-6.27,14-14,14s-14-6.27-14-14c0-3.93,1.62-7.49,4.24-10.03,2.53-2.46,5.97-3.97,9.76-3.97s7.23,1.51,9.76,3.97c2.62,2.54,4.24,6.1,4.24,10.03Z"/><path class="cls-2" d="M23,150c-8,0-14.5-6.5-14.5-14.5,0-3.95,1.56-7.64,4.39-10.39,2.73-2.65,6.32-4.11,10.11-4.11s7.38,1.46,10.11,4.11c2.83,2.75,4.39,6.43,4.39,10.39,0,8-6.5,14.5-14.5,14.5ZM23,122c-3.53,0-6.87,1.36-9.41,3.83-2.64,2.56-4.09,5.99-4.09,9.67,0,7.44,6.06,13.5,13.5,13.5s13.5-6.06,13.5-13.5c0-3.68-1.45-7.12-4.09-9.67-2.54-2.47-5.88-3.83-9.41-3.83Z"/></svg>