<?xml version="1.0" encoding="UTF-8"?><svg id="Layer_1" xmlns="http://www.w3.org/2000/svg" viewBox="0 0 60 240"><defs><style>.cls-1{fill:#1d1f21;}.cls-2{fill:#656a70;}.cls-3{fill:gray;}.cls-4{fill:#fefefe;}</style></defs><path class="cls-3" d="M59.33,184.32l-.25.48-15.98,32.42c-3.23-4.36-7.63-7.04-12.48-7.04V7.96l28.67,176.2.03.16h.01Z"/><path class="cls-2" d="M43.23,218.59l-.55-.73c-3.25-4.38-7.53-6.8-12.04-6.8h-.64V0l30,184.35-.13.48-.25.48-16.4,33.29v-.02ZM31.28,209.32c4.36.21,8.48,2.51,11.74,6.56l15.64-31.75L31.28,15.92v193.4Z"/><path class="cls-4" d="M.67,184.32l.25.48,15.98,32.42c3.23-4.36,7.63-7.04,12.48-7.04V7.96L.7,184.16l-.03.16h-.01Z"/><path class="cls-1" d="M16.77,218.59l.55-.73c3.25-4.38,7.53-6.8,12.04-6.8h.64V0L0,184.35l.13.48.25.48,16.4,33.29v-.02ZM28.72,209.32c-4.36.21-8.48,2.51-11.74,6.56l-15.64-31.75L28.72,15.92v193.4Z"/><path class="cls-3" d="M44,225c0,7.73-6.27,14-14,14s-14-6.27-14-14c0-3.93,1.62-7.49,4.24-10.03,2.53-2.46,5.97-3.97,9.76-3.97s7.23,1.51,9.76,3.97c2.62,2.54,4.24,6.1,4.24,10.03Z"/><path class="cls-2" d="M30,240c-8.28,0-15-6.72-15-15,0-4.09,1.61-7.9,4.54-10.75,2.82-2.74,6.54-4.25,10.46-4.25s7.63,1.51,10.46,4.25c2.93,2.84,4.54,6.65,4.54,10.75,0,8.28-6.72,15-15,15ZM30,211.03c-3.65,0-7.11,1.41-9.73,3.96-2.73,2.65-4.23,6.2-4.23,10,0,7.7,6.27,13.97,13.97,13.97s13.97-6.27,13.97-13.97c0-3.81-1.5-7.37-4.23-10-2.63-2.56-6.08-3.96-9.73-3.96Z"/></svg>