<?xml version="1.0" encoding="UTF-8"?><svg id="Layer_1" xmlns="http://www.w3.org/2000/svg" viewBox="0 0 30 210"><defs><style>.cls-1{fill:#f0f0f0;}.cls-2{fill:#404040;}.cls-3{fill:gray;}</style></defs><path class="cls-1" d="M14.68,6.89v175.19c-2.42,0-4.62,2.32-6.24,6.1L.46,160.1l-.12-.41v-.14S14.68,6.89,14.68,6.89Z"/><path class="cls-2" d="M8.39,189.37L0,159.84l.03-.33L15,0v182.85h-.32c-2.26,0-4.39,2.09-6.01,5.88l-.27.64ZM.69,159.52l.04.14,7.77,27.36c1.63-3.51,3.68-5.51,5.86-5.68V13.79L.69,159.52Z"/><path class="cls-3" d="M29.67,159.68l-.12.41-7.99,28.09c-1.62-3.78-3.82-6.1-6.24-6.1V6.89l14.34,152.65v.14Z"/><path class="cls-2" d="M21.61,189.37l-.27-.64c-1.62-3.79-3.76-5.88-6.02-5.88h-.32V0l15,159.71-.07.42-.12.42-8.2,28.84ZM15.64,181.33c2.18.18,4.24,2.17,5.87,5.68l7.82-27.5L15.64,13.79v167.54Z"/><path class="cls-3" d="M29,195.5c0,7.73-6.27,14-14,14s-14-6.27-14-14c0-3.93,1.62-7.49,4.24-10.03,2.53-2.46,5.97-3.97,9.76-3.97s7.23,1.51,9.76,3.97c2.62,2.54,4.24,6.1,4.24,10.03Z"/><path class="cls-2" d="M15,210c-8,0-14.5-6.5-14.5-14.5,0-3.95,1.56-7.64,4.39-10.39,2.73-2.65,6.32-4.11,10.11-4.11s7.38,1.46,10.11,4.11c2.83,2.75,4.39,6.43,4.39,10.39,0,8-6.5,14.5-14.5,14.5ZM15,182c-3.53,0-6.87,1.36-9.41,3.83-2.64,2.56-4.09,5.99-4.09,9.67,0,7.44,6.06,13.5,13.5,13.5s13.5-6.06,13.5-13.5c0-3.68-1.45-7.12-4.09-9.67-2.54-2.47-5.88-3.83-9.41-3.83Z"/></svg>