<?xml version="1.0" encoding="UTF-8"?><svg id="Layer_1" xmlns="http://www.w3.org/2000/svg" viewBox="0 0 30 288.5"><defs><style>.cls-1{fill:#1d1f21;}.cls-2{fill:#656a70;}.cls-3{fill:gray;}.cls-4{fill:#fefefe;}</style></defs><path class="cls-1" d="M8.39,272.74l.27-1.07c1.62-6.45,3.76-10.02,6.02-10.02h.32V1.68c0-2.17-2.69-2.27-2.81-.11L0,222.29l.07.71.12.71,8.2,49.05v-.03Z"/><path class="cls-4" d="M1,221.13l.11.7,6.53,42.59c.19,1.24,1.51,1.45,1.9.3,1.07-3.14,2.31-5.19,3.65-5.78.46-.2.81-.71.81-1.34,0-15.28,0-176.78,0-253.29,0-1.69-.69-.92-.78.77L1.02,220.9v.23s-.02,0-.02,0Z"/><path class="cls-2" d="M21.61,272.74l-.27-1.07c-1.62-6.45-3.76-10.02-6.02-10.02h-.32V1.68c0-2.17,2.69-2.27,2.81-.11l12.19,220.72-.07.71-.12.71-8.2,49.05v-.03Z"/><path class="cls-3" d="M29,221.13l-.11.7-6.53,42.59c-.19,1.24-1.51,1.45-1.9.3-1.07-3.14-2.31-5.19-3.65-5.78-.46-.2-.81-.71-.81-1.34,0-15.28,0-176.78,0-253.29,0-1.69.69-.92.78.77l12.2,215.83v.23s.02,0,.02,0Z"/><path class="cls-3" d="M27.6,275c0,6.96-5.64,12.6-12.6,12.6s-12.6-5.64-12.6-12.6c0-3.54,1.46-6.74,3.82-9.03,2.28-2.21,5.37-3.57,8.78-3.57s6.51,1.36,8.78,3.57c2.36,2.29,3.82,5.49,3.82,9.03Z"/><path class="cls-2" d="M15,288.5c-7.45,0-13.5-6.05-13.5-13.5,0-3.68,1.45-7.11,4.09-9.67,2.54-2.47,5.88-3.83,9.41-3.83s6.87,1.36,9.41,3.83c2.63,2.56,4.09,5.99,4.09,9.67,0,7.45-6.05,13.5-13.5,13.5ZM15,262.43c-3.29,0-6.4,1.27-8.76,3.57-2.46,2.38-3.81,5.58-3.81,9,0,6.93,5.64,12.57,12.57,12.57s12.57-5.64,12.57-12.57c0-3.43-1.35-6.63-3.81-9-2.36-2.3-5.47-3.57-8.76-3.57Z"/></svg>