<?xml version="1.0" encoding="UTF-8"?><svg id="Layer_1" xmlns="http://www.w3.org/2000/svg" viewBox="0 0 30 300"><defs><style>.cls-1{opacity:.05;}.cls-2{fill:#656a70;}.cls-3{fill:gray;}</style></defs><g id="fake" class="cls-1"><path class="cls-3" d="M29,285c0,7.73-6.27,14-14,14s-14-6.27-14-14c0-3.93,1.62-7.49,4.24-10.03,2.53-2.46,5.97-3.97,9.76-3.97s7.23,1.51,9.76,3.97c2.62,2.54,4.24,6.1,4.24,10.03Z"/><path class="cls-2" d="M15,300c-8.28,0-15-6.72-15-15,0-4.09,1.61-7.9,4.54-10.75,2.82-2.74,6.54-4.25,10.46-4.25s7.63,1.51,10.46,4.25c2.93,2.84,4.54,6.65,4.54,10.75,0,8.28-6.72,15-15,15ZM15,271.03c-3.65,0-7.11,1.41-9.73,3.96-2.73,2.65-4.23,6.2-4.23,10,0,7.7,6.27,13.97,13.97,13.97s13.97-6.27,13.97-13.97c0-3.81-1.5-7.37-4.23-10-2.63-2.56-6.08-3.96-9.73-3.96Z"/></g><path class="cls-3" d="M14.92,5.25h.08v279.07h-.08c-.57,0-1.11,3.25-1.52,9.14l-.07.99-2.13-45.88v-.51l.17-10.59v-.31L13.1,2.75c0-1.38.85-2.5,1.9-2.5l-.08,5Z"/><path class="cls-2" d="M13.51,294.47h-.38l-2.13-45.89.17-11.43L12.9,2.75c0-1.51.94-2.75,2.1-2.75h.19l-.08,5h.07v279.57h-.27s-.72.1-1.33,8.91c0,0-.07.99-.07.99ZM14.81.51c-.85.13-1.52,1.08-1.52,2.24l-1.73,234.41v.32l-.18,11.1,1.99,42.72c.54-6.39,1.13-7.13,1.44-7.21V5.5h-.08s.08-4.99.08-4.99Z"/><path class="cls-3" d="M18.81,248.36l-.02.65-.03.64-2.09,44.8-.07-.99c-.41-5.89-.95-9.14-1.52-9.14h-.08V5.25h.08l-.08-5c1.05,0,1.9,1.12,1.9,2.5l1.74,235.09.16,10.52h.01Z"/><path class="cls-2" d="M16.49,294.47l-.07-.99c-.62-8.81-1.33-8.91-1.33-8.91h-.27V5h.07l-.08-5h.19c1.16,0,2.1,1.23,2.1,2.75l1.74,235.09.16,10.53-.05,1.3-2.09,44.8h-.38.01ZM15.19,284.08c.31.08.9.82,1.44,7.21l1.99-42.93-.16-10.51L16.71,2.75c0-1.16-.67-2.11-1.52-2.24l.08,4.99h-.08s0,278.58,0,278.58Z"/><path class="cls-3" d="M25.27,285c0,5.67-4.6,10.27-10.27,10.27s-10.27-4.6-10.27-10.27c0-2.88,1.19-5.49,3.11-7.36,1.86-1.8,4.38-2.91,7.16-2.91s5.3,1.11,7.16,2.91c1.92,1.86,3.11,4.47,3.11,7.36Z"/><path class="cls-2" d="M15,296c-6.07,0-11-4.93-11-11,0-3,1.18-5.8,3.33-7.88,2.07-2.01,4.79-3.12,7.67-3.12s5.6,1.11,7.67,3.12c2.15,2.09,3.33,4.88,3.33,7.88,0,6.07-4.93,11-11,11ZM15,274.76c-2.68,0-5.21,1.03-7.14,2.91-2,1.94-3.1,4.54-3.1,7.34,0,5.64,4.6,10.24,10.24,10.24s10.24-4.6,10.24-10.24c0-2.79-1.1-5.4-3.1-7.34-1.93-1.87-4.46-2.91-7.14-2.91Z"/></svg>