<?xml version="1.0" encoding="UTF-8"?><svg id="Layer_1" xmlns="http://www.w3.org/2000/svg" viewBox="0 0 29 300"><defs><style>.cls-1{fill:#404040;}.cls-2{fill:gray;}</style></defs><path class="cls-2" d="M14.42,5.25h.08v279.07h-.08c-.57,0-1.11,3.25-1.52,9.14l-.07.99-2.13-45.88v-.51s.17-10.59.17-10.59v-.31S12.6,2.75,12.6,2.75c0-1.38.85-2.5,1.9-2.5l-.08,5Z"/><path class="cls-1" d="M13.01,294.47h-.38s-2.13-45.89-2.13-45.89l.17-11.43L12.4,2.75c0-1.51.94-2.75,2.1-2.75h.19l-.08,5h.07v279.57h-.27s-.72.1-1.33,8.91l-.07.99ZM14.31.51c-.85.13-1.52,1.08-1.52,2.24l-1.73,234.41v.32s-.18,11.1-.18,11.1l1.99,42.72c.54-6.39,1.13-7.13,1.44-7.21V5.5h-.08l.08-4.99Z"/><path class="cls-2" d="M18.31,248.36l-.02.65-.03.64-2.09,44.8-.07-.99c-.41-5.89-.95-9.14-1.52-9.14h-.08V5.25h.08l-.08-5c1.05,0,1.9,1.12,1.9,2.5l1.74,235.09.16,10.52Z"/><path class="cls-1" d="M15.99,294.47l-.07-.99c-.62-8.81-1.33-8.91-1.33-8.91h-.27V5h.07l-.08-5h.19c1.16,0,2.1,1.23,2.1,2.75l1.74,235.09.16,10.53-.05,1.3-2.09,44.8h-.38ZM14.69,284.08c.31.08.9.82,1.44,7.21l1.99-42.93-.16-10.51L16.21,2.75c0-1.16-.67-2.11-1.52-2.24l.08,4.99h-.08v278.58Z"/><path class="cls-2" d="M28.5,285.5c0,7.73-6.27,14-14,14s-14-6.27-14-14c0-3.93,1.62-7.49,4.24-10.03,2.53-2.46,5.97-3.97,9.76-3.97s7.23,1.51,9.76,3.97c2.62,2.54,4.24,6.1,4.24,10.03Z"/><path class="cls-1" d="M14.5,300c-8,0-14.5-6.5-14.5-14.5,0-3.95,1.56-7.64,4.39-10.39,2.73-2.65,6.32-4.11,10.11-4.11s7.38,1.46,10.11,4.11c2.83,2.75,4.39,6.43,4.39,10.39,0,8-6.5,14.5-14.5,14.5ZM14.5,272c-3.53,0-6.87,1.36-9.41,3.83-2.64,2.56-4.09,5.99-4.09,9.67,0,7.44,6.06,13.5,13.5,13.5s13.5-6.06,13.5-13.5c0-3.68-1.45-7.12-4.09-9.67-2.54-2.47-5.88-3.83-9.41-3.83Z"/></svg>