<svg xmlns="http://www.w3.org/2000/svg" id="svg2" viewBox="0 0 512 512"><defs><style>.cls-6{fill:#a1a1a1}.cls-9{fill:#838383}.cls-10{fill:#8b8b8b}.cls-11{fill:#a3a3a3}.cls-14{fill:#00010d}.cls-18{fill:#b9b9b9}.cls-25{fill:#afafaf}.cls-26{fill:#ababab}.cls-29{fill:#adadad}.cls-31{fill:#aeaeae}.cls-40{fill:#979797}.cls-41{fill:#8e8e8e}.cls-44{fill:#9a9a9a}.cls-47{fill:#d1d1d1}.cls-48{fill:#b0b0b0}.cls-49{fill:#b2b2b2}.cls-52{fill:#acacac}.cls-56{fill:#898989}</style></defs><path d="M512 428V285l-8 1 5 10-9-7-3 11-1-12-10 6 7-9-11-4 11-1-5-10 9 7 3-10 2 11 10-5-7 8 7 3v-46l-2-1-2 5v-6l-5 2 3-4-5-2h6l-2-5 4 4 2-6v6h1v-51l-2-1v5l-2-5-3 3 2-4h-4l4-1-3-4 4 2v-4l2 4 2-2v-58l-4-2-1 5-2-5-4 3 2-5h-5l5-2-3-4 5 2v-5l2 5 4-3-2 5h3V84q0-15-5-29l-7 7 4-13-1-2h-14l11-6-8-12h-1a84 84 0 0 0-63-29H84C38 0 0 38 0 84v344c0 46 38 84 84 84h344c46 0 84-38 84-84m-51-304 8 7 4-10v10l10-4-7 8 9 4h-10l4 10-8-7-4 9v-10l-10 4 7-8-9-4h10zm-3 73 6-10-1 12 12-4-10 8 11 6-12-1 3 12-8-9-6 10 1-12-11 3 9-7-11-7 13 2-4-12zm8 77-7-3v7l-2-7-6 5 3-7h-7l7-3-5-5 7 3v-7l3 7 5-5-3 6 7 1-7 2zM433 65l4 6 4-6-1 6 6-1-5 4 6 3h-7l2 6-4-5-3 6v-7l-6 2 5-4-6-4 7 1zm-22 66 6-15 1 17 16-7-12 13 16 6-17 1 6 15-12-11-7 15v-17l-16 7 12-13-16-6h17l-6-16zm-5 75-7-3v8l-3-8-6 6 3-7-8-1 8-3-6-5 8 3v-8l3 7 5-5-3 7h8l-7 3zM331 94l2-15 4 14 12-9-7 14 15 2-14 4 9 12-14-7-2 15-4-15-12 9 7-13-15-2 15-4-9-12zm31 64-3 1 2 3-3-2v4l-2-3-2 2 1-3h-4l4-2-3-2 4 1v-4l1 4 3-3-2 4zm-48 25-3-3-1 5-1-5-4 2 3-3-4-1 4-1-2-4 3 3 2-4v4l4-2-3 3 5 2h-5zm-9 69-15-5 1 15-7-13-10 11 5-14h-16l14-6-11-11 14 5-1-15 7 13 11-11-5 15 15-1-14 7zm-35-117 9-1-4-8 7 6 3-8 1 8 8-4-6 7 8 3-9 1 4 8-7-6-3 9v-9l-8 4 5-7zm-1-82 15 5-1-16 7 14 11-12-5 16 16-1-14 7 12 11-15-5v16l-7-15-11 12 5-15-16 1 15-7zm-14 119 7 2-1-7 3 6 5-5-2 6h7l-6 3 5 4-7-2 1 7-3-6-5 6 2-7-7 1 6-4zm-36-74 7 10 7-10-2 12 12-3-10 8 11 7-13-2 3 12-7-10-7 10 2-12-12 3 10-8-11-6 12 1zm-2 66-4-9 7 6 4-9v10l9-5-6 8 10 3-10 1 4 9-8-6-3 9-1-10-9 5 6-8-9-3zm12 64-7-3-1 8-3-8-6 6 4-8h-9l8-3-6-6 8 3v-8l3 8 6-6-3 7 8 1-7 3zm-20 103v7l7-2-6 5 8 3h-8l2 8-5-6-3 7v-7l-8 2 6-5-7-3h8l-3-8 5 6zm-31-28 7-3-5-5 6 3 1-7 2 7 5-5-3 7h7l-6 2 4 6-6-3-1 7-2-7-5 5 3-7zm-3-69-4-4-2 5v-5l-5 2 3-4-5-2h6l-2-6 4 4 2-5v6l5-2-4 4 5 2h-5zm-5 41-2-2-1 2v-3l-2 1 2-2-3-1h3l-1-2 2 2 1-3v3l3-1-2 2 2 1h-3zm-29-15-14-8-2 16-4-15-13 9 8-14-16-2 16-4-10-13 14 8 2-16 4 16 13-10-8 14 16 2-15 4zm-36 45-6-4-2 7-1-7-6 3 4-5-7-2 8-1-4-7 6 5 2-7 1 7 6-4-4 6 7 2-7 1zm-7 43-3-1v3l-2-2-2 2 1-3h-3l3-1-3-2 3 1v-4l2 3 2-2-1 3 3-1-3 2zM85 206l2-1-1-2 2 2v-3l1 2 2-1-1 2h3l-3 1 2 3-2-2-1 3-1-3-2 2 2-2zm59 2-10-11-6 13v-15l-14 5 11-10-13-7 14 1-4-14 10 11 6-14v15l14-5-11 10 13 7-15-1zm10-53-4-11-9 8 4-11-12-1 12-4-9-9 11 5 1-12 4 11 9-8-5 11h12l-11 5 9 8-12-4zm21 18 7 6 3-9 1 9 8-4-6 7 9 4h-10l4 9-7-6-3 8-1-9-8 4 6-7-9-3 10-1zm2-99 7-14v15l14-5-11 11 14 6h-15l5 15-11-11-6 14V89l-15 5 11-10-14-7h16l-5-14zm-42-58 8 1-1-8 4 7 4-6-1 7 8-1-7 4 6 5-7-2 1 8-4-6-5 6 2-8-8 1 6-4zM88 65l16 6V54l7 15 12-13-5 16 17-1-16 8 13 12-16-6 1 17-8-15-11 13 5-16-17 1 15-8zm-6 67 12 9 4-15 3 15 13-7-9 12 15 4-15 2 7 14-12-9-4 14-2-15-14 8 9-12-14-4 15-3zm-16-16-14 3 8 11-12-7-2 13-3-13-11 8 7-12-14-2 13-3-7-12 11 8 3-14 3 13 11-7-7 11zm-9 75-9-7-4 10v-11l-11 4 8-8-11-4 12-1-5-11 8 8 5-11v12l11-5-8 9 11 4-12 1zM34 61l-3-11 7 9 5-10-1 11 11-3-8 7 10 6-12-1 3 11-7-9-5 10 1-11-11 3 8-7-9-6zm-23 97-4-1v3l-1-3-3 2 2-3-4-1 4-1-3-3 4 2v-4l1 4 3-2-2 3h4l-4 1zm24 294-5-6-4 7 1-8-8 2 6-5-7-3h8l-2-7 5 5 3-7v8l7-2-5 5 7 4-8-1zm-3-154 3 4 3-4-1 5 6-1-5 3 5 3h-6l1 5-3-5-3 5 1-5-6 1 5-4-5-3 6 1zm21 81-6-6-3 9-1-9-8 3 6-6-8-4h9l-3-8 6 6 3-8 1 9 8-4-6 7 8 3h-9zm7-116-15-8-3 17-4-17-14 10 9-14-17-3 16-4-10-14 15 8 3-17 4 17 14-10-9 15 17 2-16 5zm48 172-11-13-8 15 1-17-16 5 13-11-15-8 17 1-5-16 11 13 8-15-1 17 16-5-13 11 15 8-17-1zm27-104-13-11 17 5-2-17 8 15 11-13-5 16 17-1-15 8 13 11-16-5 2 17-9-15-10 13 4-16-16 1zm19 59-3-2v4l-1-4-4 3 2-4h-3l3-1-2-3 3 1 1-3 1 3 3-2-2 3 4 1-4 1zm23 81-16-5 1 16-7-14-11 12 5-16-17 1 15-8-12-11 16 6-1-17 7 15 12-12-6 15h17l-15 7zm41-56-14-5v15l-6-14-11 11 5-14-15 1 14-7-11-11 14 6-1-16 7 14 11-11-5 14h15l-14 6zm14-113-3-10-9 6 5-9-10-2 10-3-6-9 9 6 2-11 3 10 8-6-5 9 11 2-11 3 7 9-10-6zm8 61 9 6 3-11 2 11 9-6-6 9 11 3-11 2 6 9-9-6-3 11-2-11-9 6 6-9-11-3 11-2zm34 89-12-6-2 14-4-14-11 9 6-12-13-2 13-4-9-11 12 7 2-14 4 13 11-9-6 13 13 1-13 4zm-3-119 7-12-14-2 13-4-9-11 13 6 1-14 4 14 11-9-6 12 14 2-13 4 8 11-12-6-1 13-5-13zm15 53 9-7-10-7 12 2-2-12 7 10 6-10-2 12 12-3-10 7 11 7-12-2 2 12-7-10-6 10 1-12zm43 59-9-8-5 12-1-13-11 6 8-10-12-4 13-2-6-11 10 8 4-12 1 13 12-6-9 10 13 4-13 1zm7-153 5-3-4-3 5 2-1-6 3 5 3-4-1 5h5l-5 2 4 4-5-2v5l-2-4-3 3 1-4zm22 106-6-2 1 6-3-5-4 5 1-6h-6l5-3-5-4 7 2-1-7 3 6 4-5-1 6 6-1-6 4zm6-42-6-8-5 9 1-10-10 3 8-6-9-5 10 1-3-10 6 8 5-9-1 10 10-3-8 6 9 5-10-1zm-7-127 3 17-10-14-9 14 2-17-16 4 13-10-14-9 17 2-4-17 10 14 10-15-3 18 17-4-14 10 15 9zm10-193 3 6-6-4-2 7-1-7-6 4 4-6-7-2 7-2-4-6 6 4 2-7 2 7 6-3-4 6 7 2zm9 59 5 1-1-6 3 5 3-5v5l5-2-4 4 5 3-6-1 2 6-4-4-2 5v-6l-5 2 4-4zm27 314-4-1v5l-2-5-4 4 2-5-5 1 4-3-3-3 4 2v-5l2 4 4-4-2 5h5l-4 2zm20-58-4-1v4l-2-4-3 3 2-4h-4l4-1-3-3 3 1 1-4 1 4 3-3-2 4h4l-3 2zm-11-73 10 13-15-8-2 17-5-16-13 10 8-15-17-2 16-5-10-13 15 8 2-17 5 16 13-10-8 15 17 2zm68 165-16-7-1 17-6-16-12 12 6-16-17-1 16-6-11-13 15 7 1-17 6 16 13-12-7 16 17 1-16 6zm-1-101 2 6-4-5-4 6 1-6-6 1 5-4-6-3 7 1-2-7 4 5 3-5-1 6 7-2-5 5 5 3z" class="cls-14"/><path d="M512 179v-1h-1zm0-3v-2l-1 2zm0-61v-5l-3 1z" class="cls-14"/><path d="m302 385 7 10-2-12 12 2-11-7 10-7-12 3 2-12-6 10-7-10 2 12-12-2 10 7-9 7 11-3-1 12zm-8-3 3-3-2-2-1-1 5-1-1-4 1 1q1 2 4 1l2-3v5h5l-3 4 3 3h-5v5q0-3-3-4l-3 4q1-3-1-5z" class="cls-31"/><path d="m105 412 13-11-16 5 1-17-8 15-11-13 5 16-17-1 15 8-13 11 16-5-1 17 8-15 11 13-5-16 17 1zm-4 6 3 10-4-5q-1-2-4-2l-5 8 1-6-1-4-9 2 4-4q2-1 2-4l-8-5 6 1 4-1-2-9 5 5q1 2 4 1l4-7v10l9-3-4 4q-3 1-2 4l8 5-6-1z" style="fill:#b8b8b8"/><path d="m173 227 4-4-5 2v-6l-2 5-4-4 2 6h-6l5 2-3 4 5-2v5l2-5 4 4-2-5h5zm-2 1-1-1-1-1v-1h2l1 1z" style="fill:#868686"/><path d="m485 335-6 2v-6l-3 5-4-5 2 7-7-1 6 3-5 4 6-1-1 6 4-6 4 5-2-6 6 1-5-3zm-8 7h-1l-2-1v-2l1-1h2l1 1v1z" style="fill:#cacaca"/><path d="m95 345 1-3-2 2-2-3v4l-3-1 3 2-3 1h3l-1 3 2-2 2 2v-3l3 1-3-2 3-2zm-2 1q1 0 0 0" style="fill:#c1c1c1"/><path d="m48 109-3-13-3 14-11-8 7 12-13 3 14 2-7 12 11-8 3 13 2-13 12 7-8-11 14-3-14-3 7-11zm3 5 5 2h-1q-4 1-4 3l2 5-1-1q-2-2-5-1l-1 5-1-1q1-3-2-4l-5 2 1-1q2-2 1-5l-6-1 2-1q4 0 4-2l-3-5 3 1q3 3 4 0l1-5 1 2q0 3 2 4l5-3-1 2q-2 2-1 4" style="fill:#9d9d9d"/><path d="m441 198 11 7-9 7 11-3-1 12 6-10 8 9-3-12 12 1-11-6 10-8-12 4 1-12-6 10-8-9 4 12zm15-1q1 4 3 1l2-3 1 5h5l-3 4 2 2 1 1h-5v4l1 1-4-3-2 2-1 1q1-2-1-4h-5q4-1 4-4l-3-2-1-1h5q1-3-1-5z" class="cls-26"/><path d="m53 176 8-9-11 5v-12l-5 11-8-8 5 11-12 1 11 4-8 8 11-4v11l4-10 9 7-5-10 12-1zm-1 8-4-2-3 4q1-3-1-5l-4 1q3-1 2-4l-3-2 4-1v-3l-1-1 4 2q3-2 2-4l1 5 5-1-3 3 4 3-4 1q-1 2 1 4" class="cls-10"/><path d="m288 324 12 6-8-11 13-4-14-2 6-12-11 9-4-14-1 14-13-6 9 11-13 4 14 2-7 12 11-9 5 13zm-3 2-3-4-5 4 1-2q2-2 1-5l-6-1 2-1q3 1 4-2l-4-5 3 1q3 2 5-1v-5l1 3 2 3 6-3-1 2q-2 2-1 4l6 2h-2q-4 1-4 3l3 5-2-1q-2-2-4-1l-1 6z" style="fill:#929292"/><path d="m419 256-13 10-5-16-2 17-15-8 10 13-16 5 17 2-8 15 13-10 5 16 2-17 15 8-10-13 16-5-17-2zm0 18-5 2q-3 0-4 2l5 8-5-3q-2-2-4-1l-2 9-1-5q0-3-3-4l-7 6 2-6q2-2 1-4l-9-1 5-2q3 0 4-3l-5-7 6 3q2 2 4-1l1-8 4 9 7-5-2 5q-2 2-1 4z" class="cls-9"/><path d="m178 185-6 7 8-4 1 9 3-8 7 6-4-9h10l-9-4 6-7-8 4-1-9-3 9-7-6 4 8-10 1zm1-2q2-1 1-3h1q1 1 3-1v1l3 1v3q2 0 0 0-2 1-1 3 0 1 0 0l-3 1h-1l-2-2h-1zq-2 0 0 0" style="fill:#a5a5a5"/><path d="m24 73 11-3-1 11 5-10 7 9-3-11 12 1-10-6 8-7-11 3 1-11-5 10-7-9 3 11-11-1 9 5zm7-10h3q2-1 1-3v-2q1 3 3 2 2 0 3-2v-1 4h4l-2 3q1 3 3 3l-4 1v4l-3-3-3 3v-4l-4 1 2-4z" style="fill:#a0a0a0"/><path d="m220 115-10 8 12-3-2 12 7-10 7 10-3-12 13 2-11-7 10-8-12 3 2-12-7 10-7-10 2 12-12-1zm-2-3q3 1 5-1v-4l1 1q1 3 3 2l3-4v5l3 1 2-1q-3 1-4 4l3 3h1q-3-1-5 1v4l-4-3-2 2-1 1v-4h-5l3-4zm-8 64 9-5 1 10 3-9 8 6-5-9 11-1-10-3 6-8-9 5v-10l-4 9-7-6 4 9-10 1 9 3zm6-10 2-1v-3l2 1 2-2 1 1q1 3 3 1l-1 1q0 3 2 3l-1 1q-2 1-1 3l-1-1q-3 0-3 2v-1q-2-2-4-1l1-1q1-3-2-3" style="fill:#c9c9c9"/><path d="m434 75-5 4 6-2v7l3-6 4 5-2-6h7l-6-3 5-4-6 1 1-6-4 6-4-6 2 7-7-1zm3-3h1l2 1v2l-1 1h-2l-1-1-1-1z" style="fill:#777"/><path d="M382 100v6l2-5 4 4-2-6 6 1-5-3 4-4-5 2v-5l-3 5-3-5 1 6-5-1 5 3-4 4zm1-3 1-1 1 1v1l-1 1h-1z" class="cls-56"/><path d="m261 179-2 7 5-6 3 6-1-7 7 2-5-4 6-3h-7l2-6-5 5-3-6 1 7-7-2 5 4-6 4zm1-3 1-2 2 1 1 1v2l-1 1h-2l-1-2z" class="cls-6"/><path d="m461 265 3-6-5 5-3-7v7l-7-3 5 5-7 3h7l-3 7 6-5 2 7v-7l7 3-5-6 7-2zm-1 4-2 1-2-1-1-1v-2l2-1h2l1 2z" class="cls-48"/><path d="m141 187 11-10-14 5v-15l-6 14-10-11 4 14-14-1 13 7-11 10 14-5v15l6-13 10 11-5-15 15 1zm-3 6 2 7-3-3-4-2-3 6v-3l-1-5-7 2 2-2 3-4-7-4 4 1 4-2-2-7 3 4q2 2 4 0l3-5v3l1 5 7-2-2 2-3 4 7 4h-4q-2-2-4 1" style="fill:#cdcdcd"/><path d="m282 70-5 15 11-12 7 15V72l15 5-12-11 14-7h-16l5-15-11 12-7-14 1 16-15-5 12 11-15 7zm0-7-6-6 6 2q3 2 4-1l-1-7 6 7 6-6-2 9h9l-5 2-3 3 6 6-4-1h-5v8l-2-4-3-3q-4 2-6 6l1-5q2-2 0-4h-8l4-3q4 0 3-3" class="cls-25"/><path d="m399 404 2-5-4 4-2-4v5l-4-2 3 3-4 3 5-1-2 5 4-4 2 5v-5l4 1-3-3 4-2zm-2 3v-1l1-1 1 1z" class="cls-18"/><path d="m133 354 10-13 9 15-2-17 16 5-13-11 15-8-17 1 5-16-11 13-8-15 2 17-17-5 13 11-14 8 16-1zm-4-17 5-3 3-3q-3-4-7-6l7 1q2 2 3-1v-8l6 8 6-7-2 5q-1 3 1 5l8-1-4 3q-4 2-3 3l6 6-9-1v9l-3-5q0-2-3-3l-6 7 1-5q2-3 0-5z" style="fill:#939393"/><path d="m507 55-1-2-1 1 1-2-2-3-4 13zm-4-8-1-2h-5l4-2-1-2-11 6zm-11-18" style="fill:#bdbdbd"/><path d="m103 84-5 16 11-13 8 15-1-17 16 6-13-12 16-8-17 1 5-16-12 13-7-15 1 17-17-6 13 12-15 8zm0-8-7-6 6 2q4 1 4-1v-9l6 9 6-7-1 5q-2 3 0 5h9l-5 2q-3 1-3 4l6 6-5-2h-5v10l-2-5q-1-4-3-3-4 2-7 6l2-5v-5H94l6-2z" style="fill:#a7a7a7"/><path d="m388 136 16 7-12 12 16-7v17l7-15 12 11-6-15 17-1-16-6 12-13-16 7-1-17-6 15-12-11 6 16zm16-9 5 5q1 2 4 0l3-7 2 10 8-4-4 5q-2 0-1 4l8 3-6 1q-2-1-4 1l3 9-4-4-4-2-4 9v-6q1-3-2-4l-9 3 5-4q2-2 1-5l-8-3 6-1q2 1 4-1z" style="fill:#c5c5c5"/><path d="m143 23-2 8 5-6 4 6-1-8 7 2-6-5 7-4-8 1 1-7-4 6-5-7 2 8-8-1 6 4-6 4zm0-4 2-2h2l2 2v3l-2 1h-3l-1-2z" class="cls-41"/><path d="m156 77 14 7-11 10 15-5v16l6-14 11 11-5-15h15l-14-6 11-11-14 5V60l-7 14-10-11 5 14zm15-6 4 3q2 3 4 1l3-6 1 8 7-2-3 3-2 4 7 3h-4q-3 0-4 2l2 7-3-3q-1-2-4-2l-3 7v-4q0-3-2-5l-7 3 3-3 2-4-7-4h4q3 1 5-1z" class="cls-9"/><path d="m324 428 9-10-12 6-1-13-4 12-10-8 6 11-13 2 12 4-8 10 11-6 1 13 5-12 9 8-5-12 13-1zm2 3-4 2 1 4q1 1 0 0l-4-2-2 4h-1l-1-5-5 2v-1q3-1 2-4l-4-2h1l4-2-2-5 2 2h5l1-3q0-2 0 0 0 3 2 4 1 1 4-1v1q-3 1-2 4l4 2z" class="cls-40"/><path d="m102 296 4-6-6 4-1-7-2 7-6-5 4 7-7 1 6 2-4 5 6-3 1 7 2-7 6 4-3-6 7-1zm-2 3-2 1-2-1-1-2 1-2h4l1 2z" class="cls-44"/><path d="m362 342 8-6-10 3 1-10-5 9-6-8 3 10-10-1 9 5-8 6 10-3-1 10 5-9 6 8-3-10 10 1zm-1 3q-2 1-1 3l-1-1q-3-1-3 1l-1-1q-1-3-3-1l1-1q1-3-1-3l1-1q2-1 1-3l1 1q3 1 3-1l1 1q1 2 3 1l-1 1q-1 3 2 3z" class="cls-47"/><path d="m312 177 3-3zv-4l-2 4-3-3 2 4-4 1 4 1-3 3 4-2 1 5 1-5 3 3-2-4h5zm-2 2v-2z" style="fill:#b6b6b6"/><path d="m34 441 5-5-7 2v-8l-3 7-5-5 2 7h-8l7 3-6 5 8-2-1 8 4-7 5 6-2-8 8 1zm-3 3-2 1-2-2-1-2 2-2h2l2 1v3z" style="fill:#888"/><path d="m465 137-8 8 10-4v10l4-9 8 7-4-10h10l-9-4 7-8-10 4v-10l-4 10-8-7 4 9h-10zm1-2v-4l2 1q3 1 3-2l1 2 3 1-1 1q-1 3 2 3l-2 1v3l-2-1q-3 0-3 2l-1-2h-3l1-2q1-3-2-3z" class="cls-10"/><path d="m206 398 5-14-11 11-7-14 1 15-14-5 11 11-14 7 15-1-5 14 11-11 6 14v-15l14 5-11-11 14-6zm-1 7 5 5-3-1h-5v7l-2-3q0-3-3-3l-5 5 1-4v-4l-7-1 3-1 3-3q-2-4-5-6l5 2q3 1 4-2v-6l4 7 6-5-1 3q-2 3 0 5h7l-3 2q-3 0-4 3" class="cls-49"/><path d="m223 218 3-7-6 6-3-8v8l-8-3 6 6-8 3h9l-4 8 6-6 3 8 1-8 7 3-5-6 7-3zm-1 5-2 1h-3l-1-3v-2l3-2 2 1 2 2z" class="cls-11"/><path d="m511 104-4 3-2-5v5l-5-2 3 4-5 2h5l-2 5 4-3 2 5 1-5 4 2-3-4 3-1v-1h-3zm-4 7h-1l-1-1v-1l1-1 1 1z" class="cls-29"/><path d="m353 391 1-6-4 5-3-6 1 7-7-2 5 4-5 3h6l-1 6 4-5 3 5-1-6 6 2-5-4 6-4zm-5-3q0-1 0 0m4 6-1 1h-2l-1-1v-1l1-2h2l1 2z" class="cls-11"/><path d="m88 207 1 3 1-3 2 2-2-3 3-1h-3l1-2-2 1-1-2v3l-2-2 1 2-2 1zl-2 2z" class="cls-47"/><path d="m419 347 2-4zl-1-4-1 4-3-1 3 3-4 1h4l-2 4 3-3 2 4v-4l4 2-3-3 4-2zm-1 1" style="fill:#b1b1b1"/><path d="m8 154 2-3-3 2-1-4v4l-4-2 3 3-4 1 4 1-2 3 3-2 1 3v-3l4 1-3-3 4-1zm-1 1q-1 1-1-1z" style="fill:#969696"/><path d="m166 147-9-8 11-5h-12l5-11-9 8-4-11-1 12-11-5 9 9-12 4 12 1-4 11 9-8 4 11v-12zm-13-6-1 5q1-3-2-4l-4 2q2-2 1-4l-5-1q4-1 4-3l-2-3h1q2 2 4-1v-3l3 3 4-2q-2 2-1 5l4 1-3 2 2 4z" style="fill:#bababa"/><path d="M508 171v4l-4-2 3 4-4 1h4l-2 4 3-2 2 4v-5l2 1v-1l-1-1h1v-2h-1l1-2v-1l-2 2zm1 7v-1z" style="fill:#a9a9a9"/><path d="m292 236 5-15-11 11-7-13 1 15-14-5 11 11-14 6h16l-5 14 10-11 7 13-1-15 15 5-12-10 14-7zm0 6 5 5-4-1h-4v8l-2-4-3-3-6 5 2-3v-5h-8l3-2q3 0 4-3l-6-5 5 1q3 2 4-1v-7l1 4 4 3 5-5-1 4v4h7l-3 2q-3 0-3 3" class="cls-48"/><path d="m312 103 15 2-7 13 12-9 4 15 2-15 14 7-9-12 14-4-15-2 7-14-12 9-4-14-2 15-13-7 9 12zm12-11 5 3q2 2 4-1l1-6 1 3 2 4 7-4-2 3q-2 3-1 5l7 1-4 1-3 3 4 6-8-3-1 8-1-4-3-4-6 5 2-4q2-2 1-4l-8-2 4-1 4-2z" style="fill:#9b9b9b"/><path d="m89 152-9 12 14-8 2 15 4-14 12 9-7-14 15-2-15-4 9-12-13 7-3-15-4 15-12-9 8 13-15 3zm2-7-3-6 4 3h4l2-7v4l2 4 7-3-2 3q-2 2-1 4l7 3h-4q-3 0-4 2l3 7-3-2q-2-3-4-2l-3 7v-4l-2-4-7 4 2-3q3-2 2-5l-7-2 3-1q4 1 4-2" style="fill:#c2c2c2"/><path d="m187 305 2 7 1-7 6 3-4-6 6-2h-7l3-7-5 5-2-7-1 7-6-3 5 5-7 3h7l-3 7zm-1-5 2-1h2l1 2-1 2-1 1-2-1-1-1z" class="cls-49"/><path d="m49 243 9-15-14 10-4-17-3 17-15-8 10 14-16 4 17 3-9 14 14-10 4 17 3-17 15 8-10-13 16-5zm-1 7 5 7-5-2q-2-2-4-1l-2 9-2-6q1-2-2-4l-8 6 3-5q2-2 1-5l-9-2 5-1q3 0 4-3l-5-7 6 3h4l1-9 4 10 8-5-3 5q-2 2-1 4l9 2-5 1q-4 0-4 3" class="cls-40"/><path d="m371 27-6 3-2-7-1 7-7-4 4 6-7 2 7 2-4 6 6-4 1 7 2-7 6 4-3-6 7-1-7-2zm-6 9-2 1-2-1-1-2 1-2 2-1 2 1 1 2z" class="cls-44"/><path d="m152 385 2-3-3 2-1-3-1 3-3-1 2 3-3 1h3l-2 4 4-3 1 4v-4l3 2-2-3 4-1zm-1 2-1-1z" class="cls-56"/><path d="m163 453 6-15-12 12-7-15 1 17-16-6 12 11-15 8 17-1-5 16 11-12 7 14-1-16 16 5-12-11 15-7zm0 7 6 7-5-2h-4v9l-2-5-4-3-6 6 2-5v-4h-9l5-3q2 0 3-3l-6-6 6 2q2 1 4-2l-1-7 3 4q0 4 3 4l6-7-2 5v5h9z" class="cls-41"/><path d="m373 212-17 4 3-17-10 14-10-14 4 17-17-2 14 9-13 10 16-4-2 17 9-14 10 14-3-17 17 2-15-9zm-8 16-6-1-4 1 2 9-4-4q-1-3-4-3l-5 8 1-6q1-2-1-4l-9 1 5-3 2-4-8-5 6 1 5-1-2-9 4 5q1 3 4 1l4-7v10l10-1-5 3-3 4z" class="cls-40"/><path d="m236 288 11-3-11-2 5-9-8 6-3-10-2 11-9-6 6 9-10 3 10 2-5 9 9-6 3 10 1-11 10 6zm-3 2-2 3-1-3-4 1 1-3-3-2 3-1-1-3h2q3-1 2-3l2 3 3-1-1 3 4 2-3 1q-1 2 1 4-2-2-3-1" class="cls-18"/><path d="M203 340h-8l7 3-6 5 8-2v7l3-7 5 6-2-8h8l-8-3 6-5-7 2v-7l-4 7-5-6zm1-1h3l2 1v3l-1 2h-3l-2-1v-3z" style="fill:#b5b5b5"/><path d="m246 377-6 9 9-6 2 11 3-11 9 6-6-9 11-2-11-3 6-9-9 6-2-11-3 11-9-6 6 9-11 2zm1-7 3 1 2-4 1 3q2 1 4-1l-2 3q1 3 4 2l-3 2v3l-2-1q-3 2-2 3l-2-3-3 1 1-3-3-2 2-1z" style="fill:#cecece"/><path d="m512 273-10 5-2-11-3 10-9-7 5 10-11 1 11 4-7 9 10-6 1 12 4-11 8 7-5-10 8-1v-1l-7-3zm-6 11-3 1q-1 2 1 4l-4-2-2 4-1-4-4 1 2-4-4-2h3l1-3-1-2 3 2q2-1 2-3l1-1 1 4q2 1 4-1l-2 4z" class="cls-25"/><path d="m357 157-1-4v4l-4-1 3 2-4 2h4l-1 3 2-2 2 3v-4l3 2-2-3 3-1h-4l2-4zm-1 1 1 1z" class="cls-52"/><path d="m32 305-5 4 6-1-1 5 3-5 3 5-1-5h6l-5-3 5-3-6 1 1-5-3 4-3-4 1 5-6-1zm2-1h2v2l-1 1-1-1-1-1z" style="fill:#7b7b7b"/><path d="m400 197 3-7-5 5-3-7v8l-8-3 6 5-8 3 8 1-3 7 6-6 3 8v-8l7 3-5-6 7-3zm-1 4-2 1h-2l-1-2v-3l2-1 3 1 1 2z" class="cls-26"/><path d="m131 241 8-14-13 10-4-16-2 16-14-8 10 13-16 4 16 2-8 14 13-9 4 15 2-16 14 8-9-13 15-4zm-1 7 4 6-3-2q-3-2-5-1l-1 8-2-4-2-4-7 4 2-3q2-3 1-5l-8-1 5-2q2 1 3-2l-4-7 5 3q2 2 4-1l1-7 3 8 7-4-2 4q-2 2-1 4l8 2-4 1q-3 0-4 3" class="cls-6"/><path d="m265 436 6-13-11 9-4-13-2 14-12-7 9 11-14 4 14 2-6 12 11-9 4 14 1-14 13 6-9-11 13-4zm-2 5 4 6-2-1q-2-2-5-1l-1 6-1-2q1-3-2-4l-5 3 1-2q2-2 1-4l-7-2h3l3-3-3-5 3 2q3 2 4-1l1-5 1 2 2 4 5-4-1 2q-2 3-1 5l6 1-2 1z" class="cls-31"/><path d="m343 293 2 4v-5l5 2-4-4 5-2h-5l1-5-3 4-3-5 1 6-5-2 4 3-5 3 5-1-1 5zm0-5h1l-1 2h-1l-1-1z" class="cls-29"/><path d="m51 368 6-7-8 4-1-9-3 8-6-6 3 8h-9l8 4-6 6 8-3 1 9 3-9 6 6-3-8h9zm-3 4-3 1q0-2-2-2l-1-3 2-3h3q0 2 3 1v3z" class="cls-52"/><path d="m467 423 7-16-13 12-6-16-1 17-15-7 11 13-16 6 17 1-7 16 13-12 6 16 1-17 16 7-12-13 16-6zm-1 7 6 7-5-2h-4l-1 9-2-5-3-4-7 6 2-5q2-2 0-5h-9l6-3 3-2-6-7 6 2q3 2 4-1v-8l3 5 2 4 8-6-3 5v4l9 1-5 2z" style="fill:#cbcbcb"/><path d="m170 271 2-2-3 1v-3l-1 3-2-2 1 2h-3l3 1-2 2 2-1v3l1-2 2 2-1-3 3 1z" style="fill:#9e9e9e"/><path d="M281 141v9l3-9 7 6-4-8 9-1-8-3 6-7-8 4-1-8-3 8-7-6 4 8-9 1 8 3-5 7zm-1-8q2 2 4-1 0 3 3 2v3q-2 1-1 3-2-1-3 1l-3-2q1-1-1-3 2-1 1-3" style="fill:#ccc"/><path d="m511 225-2 6-4-4 2 5h-6l5 2-3 4 5-2v6l2-5 2 1v-7h-1zm0 9-1 1h-1l-1-1v-1l2-1v1z" class="cls-48"/><path d="m299 387 3-4q3 0 3 4v-5h5l-3-3 3-4h-5v-5l-2 3q-3 1-4-1l-1-1 1 4-5 1 1 1 2 2-3 3h5zm-195 26q0-3 2-4l4-4-9 3-1-5 1-5-4 7q-3 1-4-1l-5-5 2 9-4 1-6-1 8 5q1 3-2 4l-4 4 9-2 1 4-1 6 5-8q3 0 4 2l4 5-3-10 5-1 6 1zm67-187h-2v1l1 1 1 1v-1l1-1zm307 113-1-1h-2l-1 1v2l2 1h1l1-2zm-385 7q1 0 0 0M53 108l-5 3q-2-1-2-4l-1-2-1 5q-1 3-4 0l-3-1 3 5q-1 3-4 2l-2 1 6 1q1 3-1 5l-1 1 5-2q2 1 2 4l1 1 1-5q3-1 5 1l1 1-2-5q1-3 4-2l1-1-5-2q-1-2 1-4zm402 93h-5l1 1 3 2q-1 3-4 4h5q2 2 1 4l1-1 2-2 4 3-1-1v-4h5l-1-1-2-2 3-4h-5l-1-5-2 4q-2 1-3-2l-2-1q2 2 1 5M55 179l-4-3 3-3-5 1-1-5q1 2-2 4l-4-2 1 1v3l-4 1 3 2q1 3-2 4l4-1q2 2 1 5l3-4 4 2q-2-2-1-4zm236 144 2 1-3-5q0-2 4-3h2l-6-2q-1-2 1-4l1-2-6 3-2-3-1-3v5q-2 3-5 1l-3-1 4 5q-1 2-4 2l-2 1 6 1q1 3-1 5l-1 2 5-4 3 4 1 2 1-6q2-1 4 1m120-55 2-5-7 5-3-3-1-6-1 8q-2 3-4 1l-6-3 5 7q0 3-4 3l-5 2 9 1q1 2-1 4l-2 6 7-6q3 0 3 4l1 5 2-9q2-1 4 1l5 3-5-8q0-2 4-2l5-2-9-2q-1-2 1-4m-232-85v3h1l2 2h1l3-1q0 1 0 0-1-1 1-3 2 0 0 0v-3l-3-1v-1q-1 2-3 1h-1q1 2-1 3-2 0 0 0M34 65l-2 4 4-1v4l3-3 3 3v-4l4-1q-2 0-3-3l2-3h-4v-4 1q-1 2-3 2-2 1-3-2v2q1 2-1 3h-3zm185 47 2 3-3 4h5v4l1-1 2-2 4 3v-4q2-2 5-1h-1l-3-3q1-3 4-4l-2 1-3-1v-5l-3 4q-2 1-3-2l-1-1v4q-2 2-5 1zm-1 57-1 1q2-1 4 1v1q0-2 3-2l1 1q-1-2 1-3l1-1q-2 0-2-3l1-1q-2 2-3-1l-1-1-2 2-2-1v3l-2 1q3 0 2 3m218-94 1 1h2l1-1v-2l-2-1h-1l-2 2zm-53 24 1-1v-1l-1-1-1 1-1 1zm-120 80h2l1-1v-2l-1-1-2-1-1 2v1zm196 86h-2l-2 1v2l1 1 2 1 2-1v-2zm-320-77 3-4 2-2-7 2-1-5v-3l-3 5q-2 2-4 0l-3-4 2 7q-2 3-4 2l-4-1 7 4-3 4-2 2 7-2 1 5v3l3-6 4 2 3 3-2-7q2-3 4-1h4zM283 69q2 2 0 4l-1 5q2-4 6-6l3 3 2 4v-8h5l4 1-6-6 3-3 5-2h-9v-4l2-5-6 6q-3-1-3-3l-3-4 1 7q-1 3-4 1l-6-2 6 6q1 3-3 3l-4 3zm114 336-1 1v1h1zm-259-64-1 5 6-7q3 1 3 3l3 5v-9h4l5 1-6-6q-1-1 3-3l4-3-8 1q-2-2-1-5l2-5-6 7-4-3-2-5v8q-1 3-3 1l-7-1q4 2 7 6l-3 3-5 3 9-1q2 2 0 5M502 45l-1-2-4 2zm4 8v-1l-1 2zM104 82v5l-2 5q3-4 7-6 1-1 3 3l2 5V84h5l5 2-6-6q0-3 3-4l5-2h-9q-2-2 0-5l1-5-6 7q-3-1-3-3l-3-6v9q-1 2-4 1l-6-2 7 6-3 4-6 2zm299 55-6 1 8 3q1 3-1 4l-4 5 8-3q3 1 2 4v6l4-9 4 2 4 4-3-9q2-2 4-1l6-1-8-3q-1-3 1-4l4-5-8 3q-2-1-2-4v-5l-3 7q-3 2-4 0l-5-5 3 9q-2 2-4 1M144 23h3l2-1v-3l-2-2h-2l-2 2v2zm25 56h-4l7 4q1 2-2 4l-3 3 7-3q3 2 2 5v4l3-7q3 0 4 2l3 3-2-7q1-2 4-2h4l-7-3 2-4 3-3-7 2q-3-2-1-4v-4l-3 6q-2 2-4-1l-4-3 3 7q-2 3-5 1m158 352-4-2q0-3 2-4v-1q-2 2-4 1t-2-4q0-2 0 0l-1 3h-5l-2-2 2 5q-2 3-4 2h-1l4 2q1 3-2 4v1l5-2 1 5h1l2-4 4 2q1 1 0 0l-1-4 4-2zM98 295h-2l-1 2 1 2 2 1 2-1 1-2-1-1zm263 46q-2 1-3-1l-1-1q0 2-3 1l-1-1q1 2-1 3l-1 1q2 0 1 3l-1 1q2-2 3 1l1 1q0-2 3-1l1 1q-1-2 1-3l2-1q-3 0-2-3m-50-165v2zM32 440l-2-1h-2l-2 2 1 2 2 2 2-1 1-2zm434-302-1 2h3l1 2q0-2 3-2l2 1v-3l2-1q-3 0-2-3l1-1q-2 1-3-1l-1-2q0 3-3 2l-2-1v4h-2zM205 400q-2-2 0-5l1-3-6 5-3-3-1-4v6q-1 3-4 2l-5-2q3 2 5 6l-3 3-3 1 7 1v4l-1 4 5-5q3 0 3 3l2 3v-7h5l3 1-5-5q1-3 3-3l4-2zm16-182-2-1-3 2v2l1 3h3l2-1 1-3zm286-109h-2v1l1 1h1zM348 388q0-1 0 0m3 3h-2l-1 2v1l1 1h2l1-1v-1zm66-43h1zM6 154q0 2 1 1zm152-12-2-4 4-2-5-1q-1-3 1-5l-4 2-3-4v4q-2 3-4 1h-1l2 3q0 2-4 3l5 1q1 2-1 4l4-2q3 0 2 4l1-5zm133 95v-4l1-4-5 5-4-3-1-3v6q-1 3-4 1l-5-1 6 5q0 3-4 3l-3 2h8v5l-2 3 6-5 3 3 2 4v-8h4l4 1-5-5q0-3 3-3l3-2zm34-136-4 1 8 2q1 2-1 4l-2 3 6-4 3 4 1 4 1-8q3-1 5 1l3 2-4-6 3-3 4-1-7-1q-1-2 1-5l2-3-7 4-2-4-1-3-1 6q-2 3-4 1l-5-3 5 7zM91 150q1 3-2 5l-2 3 7-4 2 4v4l3-7 4 2 3 2-3-7q0-2 4-2h4l-7-3q-1-2 1-4l2-3-7 3-2-4v-4l-2 7h-4l-4-3 3 6q0 3-4 2l-3 1zm96 153 2 1 1-1 1-2-1-2h-2l-2 1v2zM48 244q-1-2 1-4l3-5-8 5q-2-1-2-4l-2-6-1 9h-4l-6-3 5 7q0 3-4 3l-5 1 9 2q1 3-1 5l-3 5 8-6q3 2 2 4l2 6 2-9q2-1 4 1l5 2-5-7q1-3 4-3l5-1zM363 31l-2 1-1 2 1 2 2 1 2-1 1-2-1-2zM162 455v-5l2-5-6 7q-3-1-3-3l-3-5 1 8q-2 2-4 1l-6-2 6 6q-1 3-3 3l-5 3h9v4l-2 5 6-6 4 3 2 5v-9h4l5 2-6-7 3-3 5-2zm198-236 5-4-10 2v-10l-4 7q-3 2-4-1l-4-5 2 9-5 1-6-1 8 5-2 4-5 3 9-1q2 2 1 4l-1 6 5-8q3 0 4 3l4 4-2-9 4-1 6 1-8-5zm-125 68 3-1-4-2 1-3-3 1-2-3q0 2-2 3h-2l1 3-3 1 3 2-1 3q1-2 4-1l1 3 2-3q2-1 3 1-2-2-1-4m-32 57 2 1h3l1-2v-3l-2-1h-3l-1 2zm42 30 3 2-1 3 3-1 2 3 2-3 2 1v-3l3-2q-3 0-4-2l2-3q-2 2-4 1l-1-3-2 4-3-1 1 3zm258-92 2-4q-2 2-4 1l-1-4-1 1q1 2-2 3l-3-2 1 2-1 3h-3l4 2-2 4 4-1 1 4 2-4 4 2q-2-2-1-4l3-1zM356 158l1 1zM34 306l1-1v-2h-2zm365-109-3-1-2 2v2l1 2h2l2-1 1-2zm-269 45q-1-2 1-4l2-4-6 4q-3-1-3-3l-1-5-1 7q-2 3-4 1l-5-3 4 7q-1 3-3 2l-5 2 8 1q1 2-1 5l-2 3 7-4 2 4 2 4 1-8q2-1 5 1l3 2-4-6q1-3 4-3l4-1zm133 195q-1-2 1-5l1-2-5 4-2-4-1-2-1 5q-1 3-4 1l-3-2 3 5-3 3h-3l7 2-1 4-1 2 5-3q3 0 2 4l1 2 1-6q3-1 5 1l2 1-4-6 4-2 2-1zm80-146h1l1-2h-2v-1l-1 2zM50 366q-3 1-3-1h-3l-2 3 1 3q2 0 2 2l3-1 2-3zm416 58v-4l3-5-8 6-2-4-3-5v8q-1 3-4 1l-6-2 6 7-3 3-6 2h9q2 3 0 5l-2 5 7-6 3 4 2 5 1-9h4l5 2-6-7 4-3 5-2zM280 139l3 2q1-2 3-1-1-2 1-3v-3q-3 1-3-2-2 3-4 1 1 2-1 3 2 2 1 3m230 94-2 1v1l1 1h1l1-1z" style="fill:rgba(255,255,255,.7)"/><path id="path15932" d="M529 440q-54 13-109-19c-52-30-97-89-149-119-39-22-79-28-118-33-40-5-80-10-119-32q-16-9-31-22A124 124 0 0 1-15 91q13-24 34-29 22-4 43 13c16 11 29 30 42 48q20 29 43 45 20 12 40 13 20 0 41 8 22 11 43 29 22 19 44 30c27 11 54 4 79-3 26-6 54-11 80 4 25 14 47 45 58 82s10 79-3 109" style="fill:rgba(255,255,255,.1)"/><g id="g15980" style="opacity:.4"><path id="path15978" d="m333 301 8 8 3 4 4 3 15 13 2 2 2 1 2 2 10 5 17 3 19-2 10-5 4-4 5-6 7-11 3-6 1-1h-70l-5-1-35-5z" style="fill:rgba(255,255,255,.44)"/><path id="path15976" d="m247 258 2 2 36 23 3 2 3 1 3 2 3 1 3 2 3 1 4 1 23 7 3 1-26-23-5-6-20-16-4-2h-2l-5-2h-10l-4 2-3 1-4 1z" style="fill:transparent"/><path id="path15974" d="m-22 160 2-1 22-9 4-1 3-1 3-1a98 98 0 0 1 66 11 185 185 0 0 1 34 20l39 32 3 4 4 5 4 5 2 2 2 2 4 4 4 4 4 3 4 4 5 3 2 2 2 2 2 1 2 1 2 2 3 1 2 1 2 1 2 1h2l2 1h2l2 1h2l12 1 7-1 8-1 2-1h2l-10-7-5-4-6-4-6-4-6-4a422 422 0 0 1-60-45l-12-10-66-49a305 305 0 0 0-53-26l-3-1-3-1-4-1-3-1-3-1H3l-3-1-4-1h-3l-4-1h-6a116 116 0 0 0-5 63" style="fill:rgba(255,255,255,.44)"/><path id="path15972" d="m520 301-5 1h-5l-6 1-6 1h-6l-6 1h-5l-12 1h-20l-4 1-1 1-3 6-2 3-1 3-9 11-11 8a49 49 0 0 1-31 2l-16-6-15-12-12-11-3-3-8-8-3-1a184 184 0 0 1-75-36l-6-4-2-2h-2l-10 2h-7l-16-1h-2l-2-1h-2l-2-1-9-5-13-9-18-17-2-2-4-5-4-5-15-16-54-36-4-2a159 159 0 0 0-41-14H26a96 96 0 0 0-33 7l-15 7q7 31 25 55 15 13 31 22c39 22 79 27 119 32 39 5 79 11 118 33 52 30 97 89 149 119q55 32 109 19a172 172 0 0 0-9-139" style="fill:rgba(255,255,255,.17)"/><path id="path15970" d="m499 269-2-1-2-1h-2l-9-1-2-1h-4l-1 1h-2l-3 1-7 4-5 6-5 8-6 11-2 6-2 5 4-1h20l51-5q-9-18-21-32" style="fill:rgba(255,255,255,.04)"/><path id="path15962" d="M19 62q-21 5-34 29l-2 6 17 2 3 1 17 4 3 1 4 1a198 198 0 0 1 49 25l42 30 66 52 53 38 10 7 3-1 4-2 10-3h7l4 1 16 9 11 10 5 6 6 5 13 11 7 7h2l5 1 5 1 5 1 40 4 39-1h16l7-16 2-3 9-15 6-5 3-1 1-1h2l5-1 4 1h6l9 3q-12-13-25-20c-27-15-54-10-80-3-25 6-52 13-79 2q-23-11-44-30-20-18-44-29c-13-6-26-6-40-8q-20-2-40-12-23-18-43-46c-13-18-26-37-42-48a55 55 0 0 0-43-13" style="fill:rgba(255,255,255,.26)"/></g></svg>